<svg width="1001" height="496" viewBox="0 0 1001 496" fill="none" xmlns="http://www.w3.org/2000/svg">
<g opacity="0.29827">
<path d="M1008.08 163.448L443.182 -356.858V-747.19L28.1096 -770C24.9043 -762.456 4.36709 -740.714 7.57176 -728.596C11.43 -714.102 30.8387 -718.735 36.4776 -709.409C43.0661 -698.42 31.7291 -653.749 28.3457 -640.86C21.8759 -616.445 7.09676 -596.665 2.82235 -572.25C-4.35982 -531.263 10.1824 -534.53 37.7242 -508.927C84.141 -465.742 46.9244 -420.952 58.6176 -370.223C68.1146 -328.878 109.605 -307.554 124.8 -266.211C136.553 -234.37 152.697 -226.233 177.746 -202.947C177.153 -217.084 164.51 -258.785 188.253 -255.102C211.817 -251.478 202.736 -216.669 207.247 -202.115C211.045 -189.997 237.933 -165.761 215.616 -154.593C208.196 -150.91 187.066 -165.582 178.577 -169.503C184.572 -150.791 180.774 -131.367 190.271 -113.487C201.608 -92.162 213.835 -100.359 228.853 -88.7754C244.344 -76.8355 242.683 -63.1137 235.797 -45.0554C228.615 -26.2247 221.196 -29.1352 232.592 -6.44342C240.843 9.95119 254.85 30.7421 266.9 43.2164C273.904 50.4634 281.502 52.1267 288.506 61.3932C294.323 69.1155 292.067 79.2142 299.012 86.1638C310.883 98.1037 331.006 98.282 340.384 113.904C350.831 131.309 338.96 144.437 369.706 142.833C371.309 177.643 377.897 209.185 377.541 243.994C394.695 250.825 422.414 242.687 440.399 239.063C458.266 263.18 481.355 246.429 501.774 259.558C510.678 265.26 508.837 279.517 514.239 284.506C525.339 294.723 533.529 288.308 547.301 291.872C557.51 294.486 565.404 301.97 575.138 304.703C584.338 307.257 599.475 301.258 606.301 309.396C614.492 319.138 600.78 336.958 613.127 344.799C623.395 351.333 638.115 335.77 648.088 338.027C659.721 340.7 693.079 371.174 701.271 381.212C710.59 392.677 719.969 414.062 725.25 428.793C733.501 451.841 732.373 463.127 749.408 479.998C760.27 490.75 749.942 491.522 767.63 494.67C779.204 496.749 794.518 488.374 806.212 487.067C830.549 484.394 855.122 489.027 879.102 484.453C901.421 480.176 922.729 473.166 945.64 469.899C965.465 467.048 1000.37 469.246 1017.94 459.801C1036.99 449.643 1038.71 426.654 1011.17 430.932C1008.97 416.26 1018.77 396.003 1007.85 385.847C1023.04 365.056 1028.56 350.384 1030.93 324.959C1032 313.792 1032.48 301.436 1038 292.05C1043.4 282.783 1058.59 277.259 1061.56 269.299C1066.13 256.943 1058.83 251.419 1053.25 244.528C1049.69 240.073 1039.54 242.212 1036.63 238.291C1031.23 231.103 1036.57 223.678 1033.6 216.431C1024.94 195.462 1014.61 187.205 1008.08 163.444C1008.26 167.424 1008.44 171.463 1008.2 175.384" stroke="white" stroke-width="2" stroke-linecap="round" stroke-linejoin="round"/>
</g>
<path d="M729.468 83.9021C746.5 127.5 689 95.9998 672 117.5C663.5 125.5 653.5 141 680.5 169C704 189.5 726.51 131.472 740.678 158.123C755.949 183.207 677.5 191.5 720.121 208.481C772 220 796.91 193.584 819.5 243C819.5 243 840.464 276.748 852.5 293C862.273 308.19 839 358 782.5 343C767.397 338.99 757 382 757 382C757 382 740.678 414 740.678 432C740.678 436.858 719.845 462.155 720.12 467" stroke="white" stroke-width="2"/>
<path fill-rule="evenodd" clip-rule="evenodd" d="M722.5 473C726.09 473 729 470.09 729 466.5C729 462.91 726.09 460 722.5 460C718.91 460 716 462.91 716 466.5C716 470.09 718.91 473 722.5 473Z" fill="#4AF6CD"/>
<path fill-rule="evenodd" clip-rule="evenodd" d="M661 363C662.657 363 664 361.657 664 360C664 358.343 662.657 357 661 357C659.343 357 658 358.343 658 360C658 361.657 659.343 363 661 363Z" fill="#4AF6CD"/>
<path fill-rule="evenodd" clip-rule="evenodd" d="M724 471C725.657 471 727 469.657 727 468C727 466.343 725.657 465 724 465C722.343 465 721 466.343 721 468C721 469.657 722.343 471 724 471Z" fill="#4AF6CD"/>
<path fill-rule="evenodd" clip-rule="evenodd" d="M365 228C366.657 228 368 226.657 368 225C368 223.343 366.657 222 365 222C363.343 222 362 223.343 362 225C362 226.657 363.343 228 365 228Z" fill="#4AF6CD"/>
<path fill-rule="evenodd" clip-rule="evenodd" d="M572 320C573.657 320 575 318.657 575 317C575 315.343 573.657 314 572 314C570.343 314 569 315.343 569 317C569 318.657 570.343 320 572 320Z" fill="#4AF6CD"/>
<path fill-rule="evenodd" clip-rule="evenodd" d="M729.5 91C733.09 91 736 88.0899 736 84.5C736 80.9101 733.09 78 729.5 78C725.91 78 723 80.9101 723 84.5C723 88.0899 725.91 91 729.5 91Z" fill="#4AF6CD"/>
<path d="M547.021 459.976L546.845 461.192H542.573V464.792H546.285V466.008H542.573V469.784H547.149V471H541.053V459.976H547.021ZM555.028 469.032C555.028 469.373 555.087 469.629 555.204 469.8C555.321 469.96 555.497 470.083 555.732 470.168L555.396 471.192C554.959 471.139 554.607 471.016 554.34 470.824C554.073 470.632 553.876 470.333 553.748 469.928C553.183 470.771 552.345 471.192 551.236 471.192C550.404 471.192 549.748 470.957 549.268 470.488C548.788 470.019 548.548 469.405 548.548 468.648C548.548 467.752 548.868 467.064 549.508 466.584C550.159 466.104 551.076 465.864 552.26 465.864H553.556V465.24C553.556 464.643 553.412 464.216 553.124 463.96C552.836 463.704 552.393 463.576 551.796 463.576C551.177 463.576 550.42 463.725 549.524 464.024L549.156 462.952C550.201 462.568 551.172 462.376 552.068 462.376C553.06 462.376 553.801 462.621 554.292 463.112C554.783 463.592 555.028 464.28 555.028 465.176V469.032ZM551.572 470.088C552.415 470.088 553.076 469.651 553.556 468.776V466.84H552.452C550.895 466.84 550.116 467.416 550.116 468.568C550.116 469.069 550.239 469.448 550.484 469.704C550.729 469.96 551.092 470.088 551.572 470.088ZM560.183 462.376C560.759 462.376 561.276 462.456 561.735 462.616C562.194 462.776 562.631 463.016 563.047 463.336L562.423 464.264C562.039 464.019 561.671 463.837 561.319 463.72C560.978 463.603 560.615 463.544 560.231 463.544C559.751 463.544 559.372 463.645 559.095 463.848C558.818 464.04 558.679 464.307 558.679 464.648C558.679 464.989 558.807 465.256 559.063 465.448C559.33 465.64 559.804 465.827 560.487 466.008C561.426 466.243 562.124 466.563 562.583 466.968C563.052 467.373 563.287 467.928 563.287 468.632C563.287 469.464 562.962 470.099 562.311 470.536C561.671 470.973 560.887 471.192 559.959 471.192C558.679 471.192 557.618 470.824 556.775 470.088L557.559 469.192C558.274 469.736 559.063 470.008 559.927 470.008C560.482 470.008 560.919 469.896 561.239 469.672C561.57 469.437 561.735 469.123 561.735 468.728C561.735 468.44 561.676 468.211 561.559 468.04C561.442 467.859 561.239 467.704 560.951 467.576C560.663 467.437 560.242 467.293 559.687 467.144C558.791 466.909 558.14 466.595 557.735 466.2C557.34 465.805 557.143 465.304 557.143 464.696C557.143 464.259 557.271 463.864 557.527 463.512C557.794 463.149 558.156 462.872 558.615 462.68C559.084 462.477 559.607 462.376 560.183 462.376ZM569.62 470.616C569.065 471 568.436 471.192 567.732 471.192C567.017 471.192 566.457 470.989 566.052 470.584C565.657 470.168 565.46 469.571 565.46 468.792V463.704H563.988V462.568H565.46V460.664L566.932 460.488V462.568H568.932L568.772 463.704H566.932V468.728C566.932 469.165 567.006 469.485 567.156 469.688C567.316 469.88 567.577 469.976 567.94 469.976C568.27 469.976 568.644 469.864 569.06 469.64L569.62 470.616ZM578.179 459.784C578.915 459.784 579.545 459.891 580.067 460.104C580.59 460.307 581.097 460.627 581.587 461.064L580.755 461.992C580.339 461.661 579.929 461.421 579.523 461.272C579.129 461.112 578.702 461.032 578.243 461.032C577.667 461.032 577.193 461.165 576.819 461.432C576.446 461.699 576.259 462.088 576.259 462.6C576.259 462.92 576.323 463.192 576.451 463.416C576.579 463.629 576.814 463.827 577.155 464.008C577.507 464.189 578.014 464.381 578.675 464.584C579.369 464.797 579.945 465.027 580.403 465.272C580.862 465.517 581.23 465.859 581.507 466.296C581.795 466.723 581.939 467.267 581.939 467.928C581.939 468.568 581.779 469.133 581.459 469.624C581.15 470.115 580.697 470.499 580.099 470.776C579.513 471.053 578.814 471.192 578.003 471.192C576.478 471.192 575.23 470.717 574.259 469.768L575.091 468.84C575.539 469.203 575.993 469.48 576.451 469.672C576.91 469.853 577.422 469.944 577.987 469.944C578.67 469.944 579.235 469.779 579.683 469.448C580.131 469.107 580.355 468.616 580.355 467.976C580.355 467.613 580.286 467.315 580.147 467.08C580.009 466.835 579.769 466.616 579.427 466.424C579.097 466.232 578.611 466.04 577.971 465.848C576.841 465.507 576.014 465.096 575.491 464.616C574.969 464.136 574.707 463.485 574.707 462.664C574.707 462.109 574.851 461.613 575.139 461.176C575.438 460.739 575.849 460.397 576.371 460.152C576.905 459.907 577.507 459.784 578.179 459.784ZM588.066 462.376C588.834 462.376 589.431 462.605 589.858 463.064C590.295 463.523 590.514 464.152 590.514 464.952V471H589.042V465.16C589.042 464.563 588.925 464.141 588.69 463.896C588.466 463.651 588.135 463.528 587.698 463.528C587.261 463.528 586.871 463.656 586.53 463.912C586.189 464.168 585.869 464.531 585.57 465V471H584.098V459.192L585.57 459.032V463.736C586.231 462.829 587.063 462.376 588.066 462.376ZM596.641 462.376C597.825 462.376 598.742 462.771 599.393 463.56C600.054 464.349 600.385 465.421 600.385 466.776C600.385 467.651 600.236 468.424 599.937 469.096C599.638 469.757 599.206 470.275 598.641 470.648C598.076 471.011 597.404 471.192 596.625 471.192C595.441 471.192 594.518 470.797 593.857 470.008C593.196 469.219 592.865 468.147 592.865 466.792C592.865 465.917 593.014 465.149 593.313 464.488C593.612 463.816 594.044 463.299 594.609 462.936C595.174 462.563 595.852 462.376 596.641 462.376ZM596.641 463.56C595.18 463.56 594.449 464.637 594.449 466.792C594.449 468.936 595.174 470.008 596.625 470.008C598.076 470.008 598.801 468.931 598.801 466.776C598.801 464.632 598.081 463.56 596.641 463.56ZM606.481 462.376C606.78 462.376 607.057 462.408 607.313 462.472L607.041 463.912C606.785 463.848 606.54 463.816 606.305 463.816C605.782 463.816 605.361 464.008 605.041 464.392C604.721 464.776 604.47 465.373 604.289 466.184V471H602.817V462.568H604.081L604.225 464.28C604.449 463.651 604.753 463.176 605.137 462.856C605.521 462.536 605.969 462.376 606.481 462.376ZM614.872 466.536C614.872 466.781 614.862 467.032 614.84 467.288H609.464C609.528 468.216 609.763 468.899 610.168 469.336C610.574 469.773 611.096 469.992 611.736 469.992C612.142 469.992 612.515 469.933 612.856 469.816C613.198 469.699 613.555 469.512 613.928 469.256L614.568 470.136C613.672 470.84 612.691 471.192 611.624 471.192C610.451 471.192 609.534 470.808 608.872 470.04C608.222 469.272 607.896 468.216 607.896 466.872C607.896 465.997 608.035 465.224 608.312 464.552C608.6 463.869 609.006 463.336 609.528 462.952C610.062 462.568 610.686 462.376 611.4 462.376C612.52 462.376 613.379 462.744 613.976 463.48C614.574 464.216 614.872 465.235 614.872 466.536ZM613.416 466.104C613.416 465.272 613.251 464.637 612.92 464.2C612.59 463.763 612.094 463.544 611.432 463.544C610.227 463.544 609.571 464.429 609.464 466.2H613.416V466.104ZM623.41 458.184V472.568H623.058V458.184H623.41ZM642.237 471H640.765L640.381 466.024C640.221 464.072 640.131 462.573 640.109 461.528L637.725 469.752H636.301L633.789 461.512C633.789 462.845 633.72 464.387 633.581 466.136L633.213 471H631.773L632.685 459.976H634.733L637.053 467.992L639.261 459.976H641.325L642.237 471ZM650.434 469.032C650.434 469.373 650.493 469.629 650.61 469.8C650.728 469.96 650.904 470.083 651.138 470.168L650.802 471.192C650.365 471.139 650.013 471.016 649.746 470.824C649.48 470.632 649.282 470.333 649.154 469.928C648.589 470.771 647.752 471.192 646.642 471.192C645.81 471.192 645.154 470.957 644.674 470.488C644.194 470.019 643.954 469.405 643.954 468.648C643.954 467.752 644.274 467.064 644.914 466.584C645.565 466.104 646.482 465.864 647.666 465.864H648.962V465.24C648.962 464.643 648.818 464.216 648.53 463.96C648.242 463.704 647.8 463.576 647.202 463.576C646.584 463.576 645.826 463.725 644.93 464.024L644.562 462.952C645.608 462.568 646.578 462.376 647.474 462.376C648.466 462.376 649.208 462.621 649.698 463.112C650.189 463.592 650.434 464.28 650.434 465.176V469.032ZM646.978 470.088C647.821 470.088 648.482 469.651 648.962 468.776V466.84H647.858C646.301 466.84 645.522 467.416 645.522 468.568C645.522 469.069 645.645 469.448 645.89 469.704C646.136 469.96 646.498 470.088 646.978 470.088ZM654.981 471.192C654.437 471.192 654.005 471.032 653.685 470.712C653.376 470.381 653.221 469.923 653.221 469.336V459.176L654.693 459V469.304C654.693 469.539 654.731 469.709 654.805 469.816C654.891 469.923 655.029 469.976 655.221 469.976C655.424 469.976 655.605 469.944 655.765 469.88L656.149 470.904C655.797 471.096 655.408 471.192 654.981 471.192ZM659.461 462.568V471H657.989V462.568H659.461ZM658.709 458.52C659.018 458.52 659.269 458.616 659.461 458.808C659.653 459 659.749 459.24 659.749 459.528C659.749 459.816 659.653 460.056 659.461 460.248C659.269 460.429 659.018 460.52 658.709 460.52C658.41 460.52 658.165 460.429 657.973 460.248C657.781 460.056 657.685 459.816 657.685 459.528C657.685 459.24 657.781 459 657.973 458.808C658.165 458.616 658.41 458.52 658.709 458.52ZM666.36 462.376C667.32 462.376 668.083 462.765 668.648 463.544C669.214 464.312 669.496 465.389 669.496 466.776C669.496 467.651 669.363 468.424 669.096 469.096C668.83 469.757 668.446 470.275 667.944 470.648C667.443 471.011 666.856 471.192 666.184 471.192C665.299 471.192 664.552 470.819 663.944 470.072L663.8 471H662.504V459.176L663.976 459V463.624C664.584 462.792 665.379 462.376 666.36 462.376ZM665.832 470.024C666.483 470.024 666.99 469.763 667.352 469.24C667.726 468.707 667.912 467.885 667.912 466.776C667.912 465.635 667.742 464.813 667.4 464.312C667.059 463.8 666.574 463.544 665.944 463.544C665.198 463.544 664.542 463.981 663.976 464.856V468.888C664.2 469.24 664.472 469.517 664.792 469.72C665.123 469.923 665.47 470.024 665.832 470.024ZM678.276 471H677.012L676.9 469.688C676.58 470.211 676.212 470.595 675.796 470.84C675.38 471.075 674.874 471.192 674.276 471.192C673.54 471.192 672.964 470.968 672.548 470.52C672.132 470.072 671.924 469.437 671.924 468.616V462.568H673.396V468.456C673.396 469.032 673.498 469.443 673.7 469.688C673.903 469.923 674.234 470.04 674.692 470.04C675.514 470.04 676.218 469.555 676.804 468.584V462.568H678.276V471ZM681.701 468.968C682.021 468.968 682.288 469.075 682.501 469.288C682.714 469.501 682.821 469.763 682.821 470.072C682.821 470.403 682.725 470.781 682.533 471.208L681.461 473.656H680.405L681.045 471C680.906 470.893 680.794 470.76 680.709 470.6C680.634 470.44 680.597 470.264 680.597 470.072C680.597 469.763 680.704 469.501 680.917 469.288C681.13 469.075 681.392 468.968 681.701 468.968ZM693.331 459.784C693.992 459.784 694.547 459.869 694.995 460.04C695.454 460.211 695.918 460.488 696.387 460.872L695.555 461.848C694.883 461.304 694.174 461.032 693.427 461.032C692.51 461.032 691.768 461.384 691.203 462.088C690.648 462.792 690.371 463.923 690.371 465.48C690.371 466.995 690.648 468.115 691.203 468.84C691.758 469.555 692.494 469.912 693.411 469.912C693.88 469.912 694.291 469.832 694.643 469.672C694.995 469.512 695.368 469.288 695.763 469L696.515 469.96C696.174 470.312 695.736 470.605 695.203 470.84C694.67 471.075 694.056 471.192 693.363 471.192C692.467 471.192 691.667 470.973 690.963 470.536C690.27 470.088 689.726 469.437 689.331 468.584C688.947 467.72 688.755 466.685 688.755 465.48C688.755 464.275 688.958 463.245 689.363 462.392C689.768 461.528 690.318 460.877 691.011 460.44C691.704 460.003 692.478 459.784 693.331 459.784ZM704.3 471L703.468 468.232H699.292L698.46 471H696.924L700.46 459.976H702.38L705.9 471H704.3ZM699.66 467H703.1L701.388 461.24L699.66 467Z" fill="white"/>
<path d="M598.378 75.784C599.039 75.784 599.594 75.8693 600.042 76.04C600.501 76.2107 600.965 76.488 601.434 76.872L600.602 77.848C599.93 77.304 599.221 77.032 598.474 77.032C597.557 77.032 596.815 77.384 596.25 78.088C595.695 78.792 595.418 79.9227 595.418 81.48C595.418 82.9947 595.695 84.1147 596.25 84.84C596.805 85.5547 597.541 85.912 598.458 85.912C598.927 85.912 599.338 85.832 599.69 85.672C600.042 85.512 600.415 85.288 600.81 85L601.562 85.96C601.221 86.312 600.783 86.6053 600.25 86.84C599.717 87.0747 599.103 87.192 598.41 87.192C597.514 87.192 596.714 86.9733 596.01 86.536C595.317 86.088 594.773 85.4373 594.378 84.584C593.994 83.72 593.802 82.6853 593.802 81.48C593.802 80.2747 594.005 79.2453 594.41 78.392C594.815 77.528 595.365 76.8773 596.058 76.44C596.751 76.0027 597.525 75.784 598.378 75.784ZM609.401 87H608.137L608.025 85.688C607.705 86.2107 607.337 86.5947 606.921 86.84C606.505 87.0747 605.999 87.192 605.401 87.192C604.665 87.192 604.089 86.968 603.673 86.52C603.257 86.072 603.049 85.4373 603.049 84.616V78.568H604.521V84.456C604.521 85.032 604.623 85.4427 604.825 85.688C605.028 85.9227 605.359 86.04 605.817 86.04C606.639 86.04 607.343 85.5547 607.929 84.584V78.568H609.401V87ZM616.106 78.376C616.405 78.376 616.682 78.408 616.938 78.472L616.666 79.912C616.41 79.848 616.165 79.816 615.93 79.816C615.407 79.816 614.986 80.008 614.666 80.392C614.346 80.776 614.095 81.3733 613.914 82.184V87H612.442V78.568H613.706L613.85 80.28C614.074 79.6507 614.378 79.176 614.762 78.856C615.146 78.536 615.594 78.376 616.106 78.376ZM622.278 78.376C622.576 78.376 622.854 78.408 623.11 78.472L622.838 79.912C622.582 79.848 622.336 79.816 622.102 79.816C621.579 79.816 621.158 80.008 620.838 80.392C620.518 80.776 620.267 81.3733 620.086 82.184V87H618.614V78.568H619.878L620.022 80.28C620.246 79.6507 620.55 79.176 620.934 78.856C621.318 78.536 621.766 78.376 622.278 78.376ZM630.669 82.536C630.669 82.7813 630.659 83.032 630.637 83.288H625.261C625.325 84.216 625.56 84.8987 625.965 85.336C626.371 85.7733 626.893 85.992 627.533 85.992C627.939 85.992 628.312 85.9333 628.653 85.816C628.995 85.6987 629.352 85.512 629.725 85.256L630.365 86.136C629.469 86.84 628.488 87.192 627.421 87.192C626.248 87.192 625.331 86.808 624.669 86.04C624.019 85.272 623.693 84.216 623.693 82.872C623.693 81.9973 623.832 81.224 624.109 80.552C624.397 79.8693 624.803 79.336 625.325 78.952C625.859 78.568 626.483 78.376 627.197 78.376C628.317 78.376 629.176 78.744 629.773 79.48C630.371 80.216 630.669 81.2347 630.669 82.536ZM629.213 82.104C629.213 81.272 629.048 80.6373 628.717 80.2C628.387 79.7627 627.891 79.544 627.229 79.544C626.024 79.544 625.368 80.4293 625.261 82.2H629.213V82.104ZM636.988 78.376C637.756 78.376 638.353 78.6053 638.78 79.064C639.217 79.5227 639.436 80.152 639.436 80.952V87H637.964V81.16C637.964 80.5627 637.852 80.1413 637.628 79.896C637.404 79.6507 637.073 79.528 636.636 79.528C636.188 79.528 635.793 79.656 635.452 79.912C635.111 80.168 634.791 80.536 634.492 81.016V87H633.02V78.568H634.284L634.412 79.816C634.711 79.368 635.079 79.016 635.516 78.76C635.964 78.504 636.455 78.376 636.988 78.376ZM646.651 86.616C646.096 87 645.467 87.192 644.763 87.192C644.048 87.192 643.488 86.9893 643.083 86.584C642.688 86.168 642.491 85.5707 642.491 84.792V79.704H641.019V78.568H642.491V76.664L643.963 76.488V78.568H645.963L645.803 79.704H643.963V84.728C643.963 85.1653 644.038 85.4853 644.187 85.688C644.347 85.88 644.608 85.976 644.971 85.976C645.302 85.976 645.675 85.864 646.091 85.64L646.651 86.616ZM654.011 75.976V85.672H658.539L658.363 87H652.491V75.976H654.011ZM663.141 78.376C664.325 78.376 665.242 78.7707 665.893 79.56C666.554 80.3493 666.885 81.4213 666.885 82.776C666.885 83.6507 666.736 84.424 666.437 85.096C666.138 85.7573 665.706 86.2747 665.141 86.648C664.576 87.0107 663.904 87.192 663.125 87.192C661.941 87.192 661.018 86.7973 660.357 86.008C659.696 85.2187 659.365 84.1467 659.365 82.792C659.365 81.9173 659.514 81.1493 659.813 80.488C660.112 79.816 660.544 79.2987 661.109 78.936C661.674 78.5627 662.352 78.376 663.141 78.376ZM663.141 79.56C661.68 79.56 660.949 80.6373 660.949 82.792C660.949 84.936 661.674 86.008 663.125 86.008C664.576 86.008 665.301 84.9307 665.301 82.776C665.301 80.632 664.581 79.56 663.141 79.56ZM672.389 78.376C672.89 78.376 673.349 78.4507 673.765 78.6C674.181 78.7387 674.581 78.968 674.965 79.288L674.261 80.216C673.962 80.0027 673.669 79.848 673.381 79.752C673.104 79.6453 672.794 79.592 672.453 79.592C671.77 79.592 671.237 79.864 670.853 80.408C670.48 80.952 670.293 81.7573 670.293 82.824C670.293 83.8907 670.48 84.68 670.853 85.192C671.226 85.6933 671.76 85.944 672.453 85.944C672.784 85.944 673.088 85.896 673.365 85.8C673.642 85.6933 673.952 85.528 674.293 85.304L674.965 86.264C674.197 86.8827 673.338 87.192 672.389 87.192C671.248 87.192 670.346 86.808 669.685 86.04C669.034 85.272 668.709 84.2107 668.709 82.856C668.709 81.96 668.858 81.176 669.157 80.504C669.456 79.832 669.877 79.3093 670.421 78.936C670.976 78.5627 671.632 78.376 672.389 78.376ZM682.481 85.032C682.481 85.3733 682.54 85.6293 682.657 85.8C682.775 85.96 682.951 86.0827 683.185 86.168L682.849 87.192C682.412 87.1387 682.06 87.016 681.793 86.824C681.527 86.632 681.329 86.3333 681.201 85.928C680.636 86.7707 679.799 87.192 678.689 87.192C677.857 87.192 677.201 86.9573 676.721 86.488C676.241 86.0187 676.001 85.4053 676.001 84.648C676.001 83.752 676.321 83.064 676.961 82.584C677.612 82.104 678.529 81.864 679.713 81.864H681.009V81.24C681.009 80.6427 680.865 80.216 680.577 79.96C680.289 79.704 679.847 79.576 679.249 79.576C678.631 79.576 677.873 79.7253 676.977 80.024L676.609 78.952C677.655 78.568 678.625 78.376 679.521 78.376C680.513 78.376 681.255 78.6213 681.745 79.112C682.236 79.592 682.481 80.28 682.481 81.176V85.032ZM679.025 86.088C679.868 86.088 680.529 85.6507 681.009 84.776V82.84H679.905C678.348 82.84 677.569 83.416 677.569 84.568C677.569 85.0693 677.692 85.448 677.937 85.704C678.183 85.96 678.545 86.088 679.025 86.088ZM689.76 86.616C689.206 87 688.576 87.192 687.872 87.192C687.158 87.192 686.598 86.9893 686.192 86.584C685.798 86.168 685.6 85.5707 685.6 84.792V79.704H684.128V78.568H685.6V76.664L687.072 76.488V78.568H689.072L688.912 79.704H687.072V84.728C687.072 85.1653 687.147 85.4853 687.296 85.688C687.456 85.88 687.718 85.976 688.08 85.976C688.411 85.976 688.784 85.864 689.2 85.64L689.76 86.616ZM692.758 78.568V87H691.286V78.568H692.758ZM692.006 74.52C692.315 74.52 692.566 74.616 692.758 74.808C692.95 75 693.046 75.24 693.046 75.528C693.046 75.816 692.95 76.056 692.758 76.248C692.566 76.4293 692.315 76.52 692.006 76.52C691.707 76.52 691.462 76.4293 691.27 76.248C691.078 76.056 690.982 75.816 690.982 75.528C690.982 75.24 691.078 75 691.27 74.808C691.462 74.616 691.707 74.52 692.006 74.52ZM698.969 78.376C700.153 78.376 701.071 78.7707 701.721 79.56C702.383 80.3493 702.713 81.4213 702.713 82.776C702.713 83.6507 702.564 84.424 702.265 85.096C701.967 85.7573 701.535 86.2747 700.969 86.648C700.404 87.0107 699.732 87.192 698.953 87.192C697.769 87.192 696.847 86.7973 696.185 86.008C695.524 85.2187 695.193 84.1467 695.193 82.792C695.193 81.9173 695.343 81.1493 695.641 80.488C695.94 79.816 696.372 79.2987 696.937 78.936C697.503 78.5627 698.18 78.376 698.969 78.376ZM698.969 79.56C697.508 79.56 696.777 80.6373 696.777 82.792C696.777 84.936 697.503 86.008 698.953 86.008C700.404 86.008 701.129 84.9307 701.129 82.776C701.129 80.632 700.409 79.56 698.969 79.56ZM709.113 78.376C709.881 78.376 710.478 78.6053 710.905 79.064C711.342 79.5227 711.561 80.152 711.561 80.952V87H710.089V81.16C710.089 80.5627 709.977 80.1413 709.753 79.896C709.529 79.6507 709.198 79.528 708.761 79.528C708.313 79.528 707.918 79.656 707.577 79.912C707.236 80.168 706.916 80.536 706.617 81.016V87H705.145V78.568H706.409L706.537 79.816C706.836 79.368 707.204 79.016 707.641 78.76C708.089 78.504 708.58 78.376 709.113 78.376Z" fill="white"/>
</svg>
