<svg width="1001" height="496" viewBox="0 0 1001 496" fill="none" xmlns="http://www.w3.org/2000/svg">
<g opacity="0.29827">
<path d="M1008.08 163.448L443.182 -356.858V-747.19L28.1096 -770C24.9043 -762.456 4.36709 -740.714 7.57176 -728.596C11.43 -714.102 30.8387 -718.735 36.4776 -709.409C43.0661 -698.42 31.7291 -653.749 28.3457 -640.86C21.8759 -616.445 7.09676 -596.665 2.82235 -572.25C-4.35982 -531.263 10.1824 -534.53 37.7242 -508.927C84.141 -465.742 46.9244 -420.952 58.6176 -370.223C68.1146 -328.878 109.605 -307.554 124.8 -266.211C136.553 -234.37 152.697 -226.233 177.746 -202.947C177.153 -217.084 164.51 -258.785 188.253 -255.102C211.817 -251.478 202.736 -216.669 207.247 -202.115C211.045 -189.997 237.933 -165.761 215.616 -154.593C208.196 -150.91 187.066 -165.582 178.577 -169.503C184.572 -150.791 180.774 -131.367 190.271 -113.487C201.608 -92.162 213.835 -100.359 228.853 -88.7754C244.344 -76.8355 242.683 -63.1137 235.797 -45.0554C228.615 -26.2247 221.196 -29.1352 232.592 -6.44342C240.843 9.95119 254.85 30.7421 266.9 43.2164C273.904 50.4634 281.502 52.1267 288.506 61.3932C294.323 69.1155 292.067 79.2142 299.012 86.1638C310.883 98.1037 331.006 98.282 340.384 113.904C350.831 131.309 338.96 144.437 369.706 142.833C371.309 177.643 377.897 209.185 377.541 243.994C394.695 250.825 422.414 242.687 440.399 239.063C458.266 263.18 481.355 246.429 501.774 259.558C510.678 265.26 508.837 279.517 514.239 284.506C525.339 294.723 533.529 288.308 547.301 291.872C557.51 294.486 565.404 301.97 575.138 304.703C584.338 307.257 599.475 301.258 606.301 309.396C614.492 319.138 600.78 336.958 613.127 344.799C623.395 351.333 638.115 335.77 648.088 338.027C659.721 340.7 693.079 371.174 701.271 381.212C710.59 392.677 719.969 414.062 725.25 428.793C733.501 451.841 732.373 463.127 749.408 479.998C760.27 490.75 749.942 491.522 767.63 494.67C779.204 496.749 794.518 488.374 806.212 487.067C830.549 484.394 855.122 489.027 879.102 484.453C901.421 480.176 922.729 473.166 945.64 469.899C965.465 467.048 1000.37 469.246 1017.94 459.801C1036.99 449.643 1038.71 426.654 1011.17 430.932C1008.97 416.26 1018.77 396.003 1007.85 385.847C1023.04 365.056 1028.56 350.384 1030.93 324.959C1032 313.792 1032.48 301.436 1038 292.05C1043.4 282.783 1058.59 277.259 1061.56 269.299C1066.13 256.943 1058.83 251.419 1053.25 244.528C1049.69 240.073 1039.54 242.212 1036.63 238.291C1031.23 231.103 1036.57 223.678 1033.6 216.431C1024.94 195.462 1014.61 187.205 1008.08 163.444C1008.26 167.424 1008.44 171.463 1008.2 175.384" stroke="white" stroke-width="2" stroke-linecap="round" stroke-linejoin="round"/>
</g>
<path d="M727.116 85.2728C703.086 92.0505 708.34 113.26 705.482 135.369C704.636 141.92 698.842 146.696 692.204 145.273C677.928 142.213 686.5 110.212 656.316 110.212C627 108.5 621.604 149.983 621.5 152C620.585 169.71 611.012 194.243 594 197.219C581.895 199.337 548.184 187.294 527.933 168.952C470.399 116.843 450 200.5 438.66 104.238C438.66 104.238 435 77.5 415 74.5C397 73 399 84.5001 408 114.5C412.49 129.468 416.954 193.217 397.144 197.219C391.066 198.447 384.63 195.65 378.521 196.723C373.736 197.564 370.407 219.469 366 221.5" stroke="white" stroke-width="2"/>
<path fill-rule="evenodd" clip-rule="evenodd" d="M364.5 231C368.09 231 371 228.09 371 224.5C371 220.91 368.09 218 364.5 218C360.91 218 358 220.91 358 224.5C358 228.09 360.91 231 364.5 231Z" fill="#4AF6CD"/>
<path fill-rule="evenodd" clip-rule="evenodd" d="M661 363C662.657 363 664 361.657 664 360C664 358.343 662.657 357 661 357C659.343 357 658 358.343 658 360C658 361.657 659.343 363 661 363Z" fill="#4AF6CD"/>
<path fill-rule="evenodd" clip-rule="evenodd" d="M725 471C726.657 471 728 469.657 728 468C728 466.343 726.657 465 725 465C723.343 465 722 466.343 722 468C722 469.657 723.343 471 725 471Z" fill="#4AF6CD"/>
<path fill-rule="evenodd" clip-rule="evenodd" d="M365 228C366.657 228 368 226.657 368 225C368 223.343 366.657 222 365 222C363.343 222 362 223.343 362 225C362 226.657 363.343 228 365 228Z" fill="#4AF6CD"/>
<path fill-rule="evenodd" clip-rule="evenodd" d="M572 320C573.657 320 575 318.657 575 317C575 315.343 573.657 314 572 314C570.343 314 569 315.343 569 317C569 318.657 570.343 320 572 320Z" fill="#4AF6CD"/>
<path fill-rule="evenodd" clip-rule="evenodd" d="M729.5 91C733.09 91 736 88.0899 736 84.5C736 80.9101 733.09 78 729.5 78C725.91 78 723 80.9101 723 84.5C723 88.0899 725.91 91 729.5 91Z" fill="#4AF6CD"/>
<path d="M173.414 217.784C174.15 217.784 174.779 217.891 175.302 218.104C175.824 218.307 176.331 218.627 176.822 219.064L175.99 219.992C175.574 219.661 175.163 219.421 174.758 219.272C174.363 219.112 173.936 219.032 173.478 219.032C172.902 219.032 172.427 219.165 172.054 219.432C171.68 219.699 171.494 220.088 171.494 220.6C171.494 220.92 171.558 221.192 171.686 221.416C171.814 221.629 172.048 221.827 172.39 222.008C172.742 222.189 173.248 222.381 173.91 222.584C174.603 222.797 175.179 223.027 175.638 223.272C176.096 223.517 176.464 223.859 176.742 224.296C177.03 224.723 177.174 225.267 177.174 225.928C177.174 226.568 177.014 227.133 176.694 227.624C176.384 228.115 175.931 228.499 175.334 228.776C174.747 229.053 174.048 229.192 173.238 229.192C171.712 229.192 170.464 228.717 169.494 227.768L170.326 226.84C170.774 227.203 171.227 227.48 171.686 227.672C172.144 227.853 172.656 227.944 173.222 227.944C173.904 227.944 174.47 227.779 174.918 227.448C175.366 227.107 175.59 226.616 175.59 225.976C175.59 225.613 175.52 225.315 175.382 225.08C175.243 224.835 175.003 224.616 174.662 224.424C174.331 224.232 173.846 224.04 173.206 223.848C172.075 223.507 171.248 223.096 170.726 222.616C170.203 222.136 169.942 221.485 169.942 220.664C169.942 220.109 170.086 219.613 170.374 219.176C170.672 218.739 171.083 218.397 171.606 218.152C172.139 217.907 172.742 217.784 173.414 217.784ZM182.501 220.376C183.685 220.376 184.602 220.771 185.253 221.56C185.914 222.349 186.245 223.421 186.245 224.776C186.245 225.651 186.095 226.424 185.797 227.096C185.498 227.757 185.066 228.275 184.501 228.648C183.935 229.011 183.263 229.192 182.485 229.192C181.301 229.192 180.378 228.797 179.717 228.008C179.055 227.219 178.725 226.147 178.725 224.792C178.725 223.917 178.874 223.149 179.173 222.488C179.471 221.816 179.903 221.299 180.469 220.936C181.034 220.563 181.711 220.376 182.501 220.376ZM182.501 221.56C181.039 221.56 180.309 222.637 180.309 224.792C180.309 226.936 181.034 228.008 182.485 228.008C183.935 228.008 184.661 226.931 184.661 224.776C184.661 222.632 183.941 221.56 182.501 221.56ZM194.948 229H193.684L193.572 227.688C193.252 228.211 192.884 228.595 192.468 228.84C192.052 229.075 191.546 229.192 190.948 229.192C190.212 229.192 189.636 228.968 189.22 228.52C188.804 228.072 188.596 227.437 188.596 226.616V220.568H190.068V226.456C190.068 227.032 190.17 227.443 190.372 227.688C190.575 227.923 190.906 228.04 191.364 228.04C192.186 228.04 192.89 227.555 193.476 226.584V220.568H194.948V229ZM202.245 228.616C201.69 229 201.061 229.192 200.357 229.192C199.642 229.192 199.082 228.989 198.677 228.584C198.282 228.168 198.085 227.571 198.085 226.792V221.704H196.613V220.568H198.085V218.664L199.557 218.488V220.568H201.557L201.397 221.704H199.557V226.728C199.557 227.165 199.631 227.485 199.781 227.688C199.941 227.88 200.202 227.976 200.565 227.976C200.895 227.976 201.269 227.864 201.685 227.64L202.245 228.616ZM207.738 220.376C208.506 220.376 209.103 220.605 209.53 221.064C209.967 221.523 210.186 222.152 210.186 222.952V229H208.714V223.16C208.714 222.563 208.597 222.141 208.362 221.896C208.138 221.651 207.807 221.528 207.37 221.528C206.933 221.528 206.543 221.656 206.202 221.912C205.861 222.168 205.541 222.531 205.242 223V229H203.77V217.192L205.242 217.032V221.736C205.903 220.829 206.735 220.376 207.738 220.376ZM220.179 217.784C220.915 217.784 221.545 217.891 222.067 218.104C222.59 218.307 223.097 218.627 223.587 219.064L222.755 219.992C222.339 219.661 221.929 219.421 221.523 219.272C221.129 219.112 220.702 219.032 220.243 219.032C219.667 219.032 219.193 219.165 218.819 219.432C218.446 219.699 218.259 220.088 218.259 220.6C218.259 220.92 218.323 221.192 218.451 221.416C218.579 221.629 218.814 221.827 219.155 222.008C219.507 222.189 220.014 222.381 220.675 222.584C221.369 222.797 221.945 223.027 222.403 223.272C222.862 223.517 223.23 223.859 223.507 224.296C223.795 224.723 223.939 225.267 223.939 225.928C223.939 226.568 223.779 227.133 223.459 227.624C223.15 228.115 222.697 228.499 222.099 228.776C221.513 229.053 220.814 229.192 220.003 229.192C218.478 229.192 217.23 228.717 216.259 227.768L217.091 226.84C217.539 227.203 217.993 227.48 218.451 227.672C218.91 227.853 219.422 227.944 219.987 227.944C220.67 227.944 221.235 227.779 221.683 227.448C222.131 227.107 222.355 226.616 222.355 225.976C222.355 225.613 222.286 225.315 222.147 225.08C222.009 224.835 221.769 224.616 221.427 224.424C221.097 224.232 220.611 224.04 219.971 223.848C218.841 223.507 218.014 223.096 217.491 222.616C216.969 222.136 216.707 221.485 216.707 220.664C216.707 220.109 216.851 219.613 217.139 219.176C217.438 218.739 217.849 218.397 218.371 218.152C218.905 217.907 219.507 217.784 220.179 217.784ZM230.066 220.376C230.834 220.376 231.431 220.605 231.858 221.064C232.295 221.523 232.514 222.152 232.514 222.952V229H231.042V223.16C231.042 222.563 230.925 222.141 230.69 221.896C230.466 221.651 230.135 221.528 229.698 221.528C229.261 221.528 228.871 221.656 228.53 221.912C228.189 222.168 227.869 222.531 227.57 223V229H226.098V217.192L227.57 217.032V221.736C228.231 220.829 229.063 220.376 230.066 220.376ZM238.641 220.376C239.825 220.376 240.742 220.771 241.393 221.56C242.054 222.349 242.385 223.421 242.385 224.776C242.385 225.651 242.236 226.424 241.937 227.096C241.638 227.757 241.206 228.275 240.641 228.648C240.076 229.011 239.404 229.192 238.625 229.192C237.441 229.192 236.518 228.797 235.857 228.008C235.196 227.219 234.865 226.147 234.865 224.792C234.865 223.917 235.014 223.149 235.313 222.488C235.612 221.816 236.044 221.299 236.609 220.936C237.174 220.563 237.852 220.376 238.641 220.376ZM238.641 221.56C237.18 221.56 236.449 222.637 236.449 224.792C236.449 226.936 237.174 228.008 238.625 228.008C240.076 228.008 240.801 226.931 240.801 224.776C240.801 222.632 240.081 221.56 238.641 221.56ZM248.481 220.376C248.78 220.376 249.057 220.408 249.313 220.472L249.041 221.912C248.785 221.848 248.54 221.816 248.305 221.816C247.782 221.816 247.361 222.008 247.041 222.392C246.721 222.776 246.47 223.373 246.289 224.184V229H244.817V220.568H246.081L246.225 222.28C246.449 221.651 246.753 221.176 247.137 220.856C247.521 220.536 247.969 220.376 248.481 220.376ZM256.872 224.536C256.872 224.781 256.862 225.032 256.84 225.288H251.464C251.528 226.216 251.763 226.899 252.168 227.336C252.574 227.773 253.096 227.992 253.736 227.992C254.142 227.992 254.515 227.933 254.856 227.816C255.198 227.699 255.555 227.512 255.928 227.256L256.568 228.136C255.672 228.84 254.691 229.192 253.624 229.192C252.451 229.192 251.534 228.808 250.872 228.04C250.222 227.272 249.896 226.216 249.896 224.872C249.896 223.997 250.035 223.224 250.312 222.552C250.6 221.869 251.006 221.336 251.528 220.952C252.062 220.568 252.686 220.376 253.4 220.376C254.52 220.376 255.379 220.744 255.976 221.48C256.574 222.216 256.872 223.235 256.872 224.536ZM255.416 224.104C255.416 223.272 255.251 222.637 254.92 222.2C254.59 221.763 254.094 221.544 253.432 221.544C252.227 221.544 251.571 222.429 251.464 224.2H255.416V224.104ZM265.41 216.184V230.568H265.058V216.184H265.41ZM284.237 229H282.765L282.381 224.024C282.221 222.072 282.131 220.573 282.109 219.528L279.725 227.752H278.301L275.789 219.512C275.789 220.845 275.72 222.387 275.581 224.136L275.213 229H273.773L274.685 217.976H276.733L279.053 225.992L281.261 217.976H283.325L284.237 229ZM292.434 227.032C292.434 227.373 292.493 227.629 292.61 227.8C292.728 227.96 292.904 228.083 293.138 228.168L292.802 229.192C292.365 229.139 292.013 229.016 291.746 228.824C291.48 228.632 291.282 228.333 291.154 227.928C290.589 228.771 289.752 229.192 288.642 229.192C287.81 229.192 287.154 228.957 286.674 228.488C286.194 228.019 285.954 227.405 285.954 226.648C285.954 225.752 286.274 225.064 286.914 224.584C287.565 224.104 288.482 223.864 289.666 223.864H290.962V223.24C290.962 222.643 290.818 222.216 290.53 221.96C290.242 221.704 289.8 221.576 289.202 221.576C288.584 221.576 287.826 221.725 286.93 222.024L286.562 220.952C287.608 220.568 288.578 220.376 289.474 220.376C290.466 220.376 291.208 220.621 291.698 221.112C292.189 221.592 292.434 222.28 292.434 223.176V227.032ZM288.978 228.088C289.821 228.088 290.482 227.651 290.962 226.776V224.84H289.858C288.301 224.84 287.522 225.416 287.522 226.568C287.522 227.069 287.645 227.448 287.89 227.704C288.136 227.96 288.498 228.088 288.978 228.088ZM296.981 229.192C296.437 229.192 296.005 229.032 295.685 228.712C295.376 228.381 295.221 227.923 295.221 227.336V217.176L296.693 217V227.304C296.693 227.539 296.731 227.709 296.805 227.816C296.891 227.923 297.029 227.976 297.221 227.976C297.424 227.976 297.605 227.944 297.765 227.88L298.149 228.904C297.797 229.096 297.408 229.192 296.981 229.192ZM301.461 220.568V229H299.989V220.568H301.461ZM300.709 216.52C301.018 216.52 301.269 216.616 301.461 216.808C301.653 217 301.749 217.24 301.749 217.528C301.749 217.816 301.653 218.056 301.461 218.248C301.269 218.429 301.018 218.52 300.709 218.52C300.41 218.52 300.165 218.429 299.973 218.248C299.781 218.056 299.685 217.816 299.685 217.528C299.685 217.24 299.781 217 299.973 216.808C300.165 216.616 300.41 216.52 300.709 216.52ZM308.36 220.376C309.32 220.376 310.083 220.765 310.648 221.544C311.214 222.312 311.496 223.389 311.496 224.776C311.496 225.651 311.363 226.424 311.096 227.096C310.83 227.757 310.446 228.275 309.944 228.648C309.443 229.011 308.856 229.192 308.184 229.192C307.299 229.192 306.552 228.819 305.944 228.072L305.8 229H304.504V217.176L305.976 217V221.624C306.584 220.792 307.379 220.376 308.36 220.376ZM307.832 228.024C308.483 228.024 308.99 227.763 309.352 227.24C309.726 226.707 309.912 225.885 309.912 224.776C309.912 223.635 309.742 222.813 309.4 222.312C309.059 221.8 308.574 221.544 307.944 221.544C307.198 221.544 306.542 221.981 305.976 222.856V226.888C306.2 227.24 306.472 227.517 306.792 227.72C307.123 227.923 307.47 228.024 307.832 228.024ZM320.276 229H319.012L318.9 227.688C318.58 228.211 318.212 228.595 317.796 228.84C317.38 229.075 316.874 229.192 316.276 229.192C315.54 229.192 314.964 228.968 314.548 228.52C314.132 228.072 313.924 227.437 313.924 226.616V220.568H315.396V226.456C315.396 227.032 315.498 227.443 315.7 227.688C315.903 227.923 316.234 228.04 316.692 228.04C317.514 228.04 318.218 227.555 318.804 226.584V220.568H320.276V229ZM323.701 226.968C324.021 226.968 324.288 227.075 324.501 227.288C324.714 227.501 324.821 227.763 324.821 228.072C324.821 228.403 324.725 228.781 324.533 229.208L323.461 231.656H322.405L323.045 229C322.906 228.893 322.794 228.76 322.709 228.6C322.634 228.44 322.597 228.264 322.597 228.072C322.597 227.763 322.704 227.501 322.917 227.288C323.13 227.075 323.392 226.968 323.701 226.968ZM335.331 217.784C335.992 217.784 336.547 217.869 336.995 218.04C337.454 218.211 337.918 218.488 338.387 218.872L337.555 219.848C336.883 219.304 336.174 219.032 335.427 219.032C334.51 219.032 333.768 219.384 333.203 220.088C332.648 220.792 332.371 221.923 332.371 223.48C332.371 224.995 332.648 226.115 333.203 226.84C333.758 227.555 334.494 227.912 335.411 227.912C335.88 227.912 336.291 227.832 336.643 227.672C336.995 227.512 337.368 227.288 337.763 227L338.515 227.96C338.174 228.312 337.736 228.605 337.203 228.84C336.67 229.075 336.056 229.192 335.363 229.192C334.467 229.192 333.667 228.973 332.963 228.536C332.27 228.088 331.726 227.437 331.331 226.584C330.947 225.72 330.755 224.685 330.755 223.48C330.755 222.275 330.958 221.245 331.363 220.392C331.768 219.528 332.318 218.877 333.011 218.44C333.704 218.003 334.478 217.784 335.331 217.784ZM346.3 229L345.468 226.232H341.292L340.46 229H338.924L342.46 217.976H344.38L347.9 229H346.3ZM341.66 225H345.1L343.388 219.24L341.66 225Z" fill="white"/>
<path d="M598.378 75.784C599.039 75.784 599.594 75.8693 600.042 76.04C600.501 76.2107 600.965 76.488 601.434 76.872L600.602 77.848C599.93 77.304 599.221 77.032 598.474 77.032C597.557 77.032 596.815 77.384 596.25 78.088C595.695 78.792 595.418 79.9227 595.418 81.48C595.418 82.9947 595.695 84.1147 596.25 84.84C596.805 85.5547 597.541 85.912 598.458 85.912C598.927 85.912 599.338 85.832 599.69 85.672C600.042 85.512 600.415 85.288 600.81 85L601.562 85.96C601.221 86.312 600.783 86.6053 600.25 86.84C599.717 87.0747 599.103 87.192 598.41 87.192C597.514 87.192 596.714 86.9733 596.01 86.536C595.317 86.088 594.773 85.4373 594.378 84.584C593.994 83.72 593.802 82.6853 593.802 81.48C593.802 80.2747 594.005 79.2453 594.41 78.392C594.815 77.528 595.365 76.8773 596.058 76.44C596.751 76.0027 597.525 75.784 598.378 75.784ZM609.401 87H608.137L608.025 85.688C607.705 86.2107 607.337 86.5947 606.921 86.84C606.505 87.0747 605.999 87.192 605.401 87.192C604.665 87.192 604.089 86.968 603.673 86.52C603.257 86.072 603.049 85.4373 603.049 84.616V78.568H604.521V84.456C604.521 85.032 604.623 85.4427 604.825 85.688C605.028 85.9227 605.359 86.04 605.817 86.04C606.639 86.04 607.343 85.5547 607.929 84.584V78.568H609.401V87ZM616.106 78.376C616.405 78.376 616.682 78.408 616.938 78.472L616.666 79.912C616.41 79.848 616.165 79.816 615.93 79.816C615.407 79.816 614.986 80.008 614.666 80.392C614.346 80.776 614.095 81.3733 613.914 82.184V87H612.442V78.568H613.706L613.85 80.28C614.074 79.6507 614.378 79.176 614.762 78.856C615.146 78.536 615.594 78.376 616.106 78.376ZM622.278 78.376C622.576 78.376 622.854 78.408 623.11 78.472L622.838 79.912C622.582 79.848 622.336 79.816 622.102 79.816C621.579 79.816 621.158 80.008 620.838 80.392C620.518 80.776 620.267 81.3733 620.086 82.184V87H618.614V78.568H619.878L620.022 80.28C620.246 79.6507 620.55 79.176 620.934 78.856C621.318 78.536 621.766 78.376 622.278 78.376ZM630.669 82.536C630.669 82.7813 630.659 83.032 630.637 83.288H625.261C625.325 84.216 625.56 84.8987 625.965 85.336C626.371 85.7733 626.893 85.992 627.533 85.992C627.939 85.992 628.312 85.9333 628.653 85.816C628.995 85.6987 629.352 85.512 629.725 85.256L630.365 86.136C629.469 86.84 628.488 87.192 627.421 87.192C626.248 87.192 625.331 86.808 624.669 86.04C624.019 85.272 623.693 84.216 623.693 82.872C623.693 81.9973 623.832 81.224 624.109 80.552C624.397 79.8693 624.803 79.336 625.325 78.952C625.859 78.568 626.483 78.376 627.197 78.376C628.317 78.376 629.176 78.744 629.773 79.48C630.371 80.216 630.669 81.2347 630.669 82.536ZM629.213 82.104C629.213 81.272 629.048 80.6373 628.717 80.2C628.387 79.7627 627.891 79.544 627.229 79.544C626.024 79.544 625.368 80.4293 625.261 82.2H629.213V82.104ZM636.988 78.376C637.756 78.376 638.353 78.6053 638.78 79.064C639.217 79.5227 639.436 80.152 639.436 80.952V87H637.964V81.16C637.964 80.5627 637.852 80.1413 637.628 79.896C637.404 79.6507 637.073 79.528 636.636 79.528C636.188 79.528 635.793 79.656 635.452 79.912C635.111 80.168 634.791 80.536 634.492 81.016V87H633.02V78.568H634.284L634.412 79.816C634.711 79.368 635.079 79.016 635.516 78.76C635.964 78.504 636.455 78.376 636.988 78.376ZM646.651 86.616C646.096 87 645.467 87.192 644.763 87.192C644.048 87.192 643.488 86.9893 643.083 86.584C642.688 86.168 642.491 85.5707 642.491 84.792V79.704H641.019V78.568H642.491V76.664L643.963 76.488V78.568H645.963L645.803 79.704H643.963V84.728C643.963 85.1653 644.038 85.4853 644.187 85.688C644.347 85.88 644.608 85.976 644.971 85.976C645.302 85.976 645.675 85.864 646.091 85.64L646.651 86.616ZM654.011 75.976V85.672H658.539L658.363 87H652.491V75.976H654.011ZM663.141 78.376C664.325 78.376 665.242 78.7707 665.893 79.56C666.554 80.3493 666.885 81.4213 666.885 82.776C666.885 83.6507 666.736 84.424 666.437 85.096C666.138 85.7573 665.706 86.2747 665.141 86.648C664.576 87.0107 663.904 87.192 663.125 87.192C661.941 87.192 661.018 86.7973 660.357 86.008C659.696 85.2187 659.365 84.1467 659.365 82.792C659.365 81.9173 659.514 81.1493 659.813 80.488C660.112 79.816 660.544 79.2987 661.109 78.936C661.674 78.5627 662.352 78.376 663.141 78.376ZM663.141 79.56C661.68 79.56 660.949 80.6373 660.949 82.792C660.949 84.936 661.674 86.008 663.125 86.008C664.576 86.008 665.301 84.9307 665.301 82.776C665.301 80.632 664.581 79.56 663.141 79.56ZM672.389 78.376C672.89 78.376 673.349 78.4507 673.765 78.6C674.181 78.7387 674.581 78.968 674.965 79.288L674.261 80.216C673.962 80.0027 673.669 79.848 673.381 79.752C673.104 79.6453 672.794 79.592 672.453 79.592C671.77 79.592 671.237 79.864 670.853 80.408C670.48 80.952 670.293 81.7573 670.293 82.824C670.293 83.8907 670.48 84.68 670.853 85.192C671.226 85.6933 671.76 85.944 672.453 85.944C672.784 85.944 673.088 85.896 673.365 85.8C673.642 85.6933 673.952 85.528 674.293 85.304L674.965 86.264C674.197 86.8827 673.338 87.192 672.389 87.192C671.248 87.192 670.346 86.808 669.685 86.04C669.034 85.272 668.709 84.2107 668.709 82.856C668.709 81.96 668.858 81.176 669.157 80.504C669.456 79.832 669.877 79.3093 670.421 78.936C670.976 78.5627 671.632 78.376 672.389 78.376ZM682.481 85.032C682.481 85.3733 682.54 85.6293 682.657 85.8C682.775 85.96 682.951 86.0827 683.185 86.168L682.849 87.192C682.412 87.1387 682.06 87.016 681.793 86.824C681.527 86.632 681.329 86.3333 681.201 85.928C680.636 86.7707 679.799 87.192 678.689 87.192C677.857 87.192 677.201 86.9573 676.721 86.488C676.241 86.0187 676.001 85.4053 676.001 84.648C676.001 83.752 676.321 83.064 676.961 82.584C677.612 82.104 678.529 81.864 679.713 81.864H681.009V81.24C681.009 80.6427 680.865 80.216 680.577 79.96C680.289 79.704 679.847 79.576 679.249 79.576C678.631 79.576 677.873 79.7253 676.977 80.024L676.609 78.952C677.655 78.568 678.625 78.376 679.521 78.376C680.513 78.376 681.255 78.6213 681.745 79.112C682.236 79.592 682.481 80.28 682.481 81.176V85.032ZM679.025 86.088C679.868 86.088 680.529 85.6507 681.009 84.776V82.84H679.905C678.348 82.84 677.569 83.416 677.569 84.568C677.569 85.0693 677.692 85.448 677.937 85.704C678.183 85.96 678.545 86.088 679.025 86.088ZM689.76 86.616C689.206 87 688.576 87.192 687.872 87.192C687.158 87.192 686.598 86.9893 686.192 86.584C685.798 86.168 685.6 85.5707 685.6 84.792V79.704H684.128V78.568H685.6V76.664L687.072 76.488V78.568H689.072L688.912 79.704H687.072V84.728C687.072 85.1653 687.147 85.4853 687.296 85.688C687.456 85.88 687.718 85.976 688.08 85.976C688.411 85.976 688.784 85.864 689.2 85.64L689.76 86.616ZM692.758 78.568V87H691.286V78.568H692.758ZM692.006 74.52C692.315 74.52 692.566 74.616 692.758 74.808C692.95 75 693.046 75.24 693.046 75.528C693.046 75.816 692.95 76.056 692.758 76.248C692.566 76.4293 692.315 76.52 692.006 76.52C691.707 76.52 691.462 76.4293 691.27 76.248C691.078 76.056 690.982 75.816 690.982 75.528C690.982 75.24 691.078 75 691.27 74.808C691.462 74.616 691.707 74.52 692.006 74.52ZM698.969 78.376C700.153 78.376 701.071 78.7707 701.721 79.56C702.383 80.3493 702.713 81.4213 702.713 82.776C702.713 83.6507 702.564 84.424 702.265 85.096C701.967 85.7573 701.535 86.2747 700.969 86.648C700.404 87.0107 699.732 87.192 698.953 87.192C697.769 87.192 696.847 86.7973 696.185 86.008C695.524 85.2187 695.193 84.1467 695.193 82.792C695.193 81.9173 695.343 81.1493 695.641 80.488C695.94 79.816 696.372 79.2987 696.937 78.936C697.503 78.5627 698.18 78.376 698.969 78.376ZM698.969 79.56C697.508 79.56 696.777 80.6373 696.777 82.792C696.777 84.936 697.503 86.008 698.953 86.008C700.404 86.008 701.129 84.9307 701.129 82.776C701.129 80.632 700.409 79.56 698.969 79.56ZM709.113 78.376C709.881 78.376 710.478 78.6053 710.905 79.064C711.342 79.5227 711.561 80.152 711.561 80.952V87H710.089V81.16C710.089 80.5627 709.977 80.1413 709.753 79.896C709.529 79.6507 709.198 79.528 708.761 79.528C708.313 79.528 707.918 79.656 707.577 79.912C707.236 80.168 706.916 80.536 706.617 81.016V87H705.145V78.568H706.409L706.537 79.816C706.836 79.368 707.204 79.016 707.641 78.76C708.089 78.504 708.58 78.376 709.113 78.376Z" fill="white"/>
</svg>
