<svg width="25" height="49" viewBox="0 0 25 49" fill="none" xmlns="http://www.w3.org/2000/svg">
<g filter="url(#filter0_d)">
<path fill-rule="evenodd" clip-rule="evenodd" d="M5 19.21C5 7.02109 10.4217 0.444977 12.6388 0.444458C14.8563 0.444977 20.2777 7.02068 20.2777 19.21C20.2777 31.5258 15.5346 39.875 15.3333 40.2244L15.1371 40.5641H10.1406L9.94444 40.2244C9.74311 39.8749 5 31.5258 5 19.21ZM11.9447 2.16249V2.16243L11.9448 2.16238L11.9447 2.16249ZM11.9447 2.16249V22.4458H13.3336V2.16243C15.1113 3.64103 18.8891 9.02019 18.8891 19.2101C18.8891 22.6106 18.5054 25.7134 17.9585 28.4231C17.1547 27.357 15.6773 25.9059 12.9848 24.4726C6.43809 20.9864 6.51764 16.1993 6.52298 15.9972H6.52124C7.20353 7.87486 10.3648 3.47794 11.9447 2.16249ZM6.5248 22.603C6.46577 21.8361 6.43105 21.05 6.41195 20.2492C7.40505 21.9688 9.16716 23.931 12.2953 25.5971C16.7407 27.9649 17.5018 30.3069 17.5209 30.3658L17.5211 30.3664C17.1808 31.7512 16.8076 33.0081 16.4343 34.1147C15.8492 33.1489 14.818 31.9615 12.9968 30.9504C7.51235 27.9074 6.64613 23.4925 6.5248 22.603ZM13.3335 39.2703H14.2936L14.2934 39.27C14.5694 38.7394 15.1284 37.6037 15.7639 35.9698C15.6284 35.4311 14.9792 33.5562 12.2847 32.0614C9.83515 30.701 8.22404 29.0817 7.15982 27.5642C8.29698 33.7718 10.3595 38.07 10.9845 39.2703H11.9446V34.7405H13.3335V39.2703Z" fill="white"/>
<path d="M12.6388 0.444458L12.6389 0.319458L12.6388 0.319458L12.6388 0.444458ZM15.3333 40.2244L15.4415 40.2869L15.4416 40.2868L15.3333 40.2244ZM15.1371 40.5641V40.6891H15.2092L15.2453 40.6266L15.1371 40.5641ZM10.1406 40.5641L10.0324 40.6266L10.0685 40.6891H10.1406V40.5641ZM9.94444 40.2244L9.83613 40.2868L9.8362 40.2869L9.94444 40.2244ZM11.9447 2.16243L11.9069 2.04326L11.8197 2.07089V2.16243H11.9447ZM11.9448 2.16238L12.0248 2.25843L11.9071 2.04321L11.9448 2.16238ZM11.9447 22.4458H11.8197V22.5708H11.9447V22.4458ZM13.3336 22.4458V22.5708H13.4586V22.4458H13.3336ZM13.3336 2.16243L13.4135 2.06632L13.2086 1.89588V2.16243H13.3336ZM17.9585 28.4231L17.8587 28.4984L18.0261 28.7203L18.0811 28.4479L17.9585 28.4231ZM12.9848 24.4726L12.926 24.5829L12.926 24.5829L12.9848 24.4726ZM6.52298 15.9972L6.64793 16.0005L6.65132 15.8722H6.52298V15.9972ZM6.52124 15.9972L6.39668 15.9867L6.3853 16.1222H6.52124V15.9972ZM6.41195 20.2492L6.52019 20.1867L6.28698 20.2522L6.41195 20.2492ZM6.5248 22.603L6.39995 22.6126L6.40094 22.6198L6.5248 22.603ZM12.2953 25.5971L12.2366 25.7074L12.2366 25.7074L12.2953 25.5971ZM17.5209 30.3658L17.402 30.4044L17.4021 30.4045L17.5209 30.3658ZM17.5211 30.3664L17.6425 30.3962L17.651 30.3616L17.64 30.3276L17.5211 30.3664ZM16.4343 34.1147L16.3274 34.1794L16.4668 34.4095L16.5528 34.1546L16.4343 34.1147ZM12.9968 30.9504L13.0575 30.8411L13.0574 30.8411L12.9968 30.9504ZM14.2936 39.2703V39.3953H14.5172L14.4 39.2048L14.2936 39.2703ZM13.3335 39.2703H13.2085V39.3953H13.3335V39.2703ZM14.2934 39.27L14.1825 39.2124L14.1498 39.2752L14.1869 39.3355L14.2934 39.27ZM15.7639 35.9698L15.8804 36.0151L15.8948 35.978L15.8851 35.9394L15.7639 35.9698ZM12.2847 32.0614L12.224 32.1707L12.2241 32.1707L12.2847 32.0614ZM7.15982 27.5642L7.26216 27.4924L7.03687 27.5867L7.15982 27.5642ZM10.9845 39.2703L10.8736 39.3281L10.9086 39.3953H10.9845V39.2703ZM11.9446 39.2703V39.3953H12.0696V39.2703H11.9446ZM11.9446 34.7405V34.6155H11.8196V34.7405H11.9446ZM13.3335 34.7405H13.4585V34.6155H13.3335V34.7405ZM12.6388 0.319458C12.3324 0.31953 11.9836 0.432501 11.6125 0.642176C11.2402 0.852565 10.8379 1.16456 10.4222 1.57363C9.59077 2.39187 8.69784 3.60637 7.87687 5.19932C6.23448 8.3861 4.875 13.0972 4.875 19.21H5.125C5.125 13.1339 6.47635 8.4625 8.09909 5.31385C8.91068 3.7391 9.78889 2.54765 10.5976 1.75182C11.002 1.35386 11.387 1.05678 11.7355 0.859831C12.0854 0.662161 12.391 0.569516 12.6389 0.569458L12.6388 0.319458ZM20.4027 19.21C20.4027 13.097 19.0433 8.38589 17.4009 5.19917C16.58 3.60624 15.6871 2.39178 14.8556 1.57357C14.4399 1.16451 14.0376 0.852535 13.6652 0.642156C13.2941 0.432491 12.9453 0.31953 12.6389 0.319458L12.6388 0.569458C12.8867 0.569516 13.1924 0.662158 13.5423 0.859817C13.8908 1.05676 14.2759 1.35383 14.6803 1.75177C15.489 2.54756 16.3672 3.73897 17.1787 5.31369C18.8014 8.46229 20.1527 13.1337 20.1527 19.21H20.4027ZM15.4416 40.2868C15.6484 39.9279 20.4027 31.5565 20.4027 19.21H20.1527C20.1527 31.495 15.4209 39.8221 15.225 40.162L15.4416 40.2868ZM15.2453 40.6266L15.4415 40.2869L15.225 40.1619L15.0288 40.5016L15.2453 40.6266ZM10.1406 40.6891H15.1371V40.4391H10.1406V40.6891ZM9.8362 40.2869L10.0324 40.6266L10.2489 40.5016L10.0527 40.1619L9.8362 40.2869ZM4.875 19.21C4.875 31.5565 9.62933 39.9278 9.83613 40.2868L10.0528 40.162C9.85689 39.822 5.125 31.495 5.125 19.21H4.875ZM11.8197 2.16243V2.16249H12.0697V2.16243H11.8197ZM11.9071 2.04321L11.9069 2.04326L11.9824 2.2816L11.9825 2.28155L11.9071 2.04321ZM12.0247 2.25853L12.0248 2.25843L11.8648 2.06634L11.8647 2.06645L12.0247 2.25853ZM12.0697 22.4458V2.16249H11.8197V22.4458H12.0697ZM13.3336 22.3208H11.9447V22.5708H13.3336V22.3208ZM13.2086 2.16243V22.4458H13.4586V2.16243H13.2086ZM19.0141 19.2101C19.0141 8.99156 15.2258 3.57363 13.4135 2.06632L13.2536 2.25853C14.9969 3.70844 18.7641 9.04883 18.7641 19.2101H19.0141ZM18.0811 28.4479C18.6294 25.7311 19.0141 22.62 19.0141 19.2101H18.7641C18.7641 22.6012 18.3815 25.6957 17.836 28.3984L18.0811 28.4479ZM12.926 24.5829C15.604 26.0085 17.0669 27.4482 17.8587 28.4984L18.0583 28.3479C17.2426 27.2659 15.7506 25.8034 13.0435 24.3623L12.926 24.5829ZM6.39802 15.9939C6.39187 16.2269 6.32473 21.0676 12.926 24.5829L13.0435 24.3623C6.55144 20.9051 6.64341 16.1717 6.64793 16.0005L6.39802 15.9939ZM6.52124 16.1222H6.52298V15.8722H6.52124V16.1222ZM11.8647 2.06643C10.2538 3.4077 7.08114 7.8386 6.39668 15.9867L6.6458 16.0077C7.32593 7.91112 10.4758 3.54818 12.0246 2.25855L11.8647 2.06643ZM6.28698 20.2522C6.30612 21.0546 6.34093 21.843 6.40016 22.6126L6.64943 22.5934C6.59061 21.8293 6.55597 21.0454 6.53691 20.2462L6.28698 20.2522ZM12.3541 25.4868C9.24575 23.8312 7.50114 21.8852 6.52019 20.1867L6.3037 20.3117C7.30895 22.0523 9.08856 24.0307 12.2366 25.7074L12.3541 25.4868ZM17.6398 30.3272C17.6105 30.2371 16.8277 27.8696 12.3541 25.4868L12.2366 25.7074C16.6537 28.0601 17.393 30.3766 17.402 30.4044L17.6398 30.3272ZM17.64 30.3276L17.6398 30.3271L17.4021 30.4045L17.4023 30.4051L17.64 30.3276ZM16.5528 34.1546C16.9271 33.0449 17.3014 31.7845 17.6425 30.3962L17.3997 30.3365C17.0603 31.7178 16.688 32.9714 16.3159 34.0747L16.5528 34.1546ZM12.9361 31.0597C14.7375 32.0597 15.7531 33.2314 16.3274 34.1794L16.5412 34.0499C15.9454 33.0664 14.8985 31.8632 13.0575 30.8411L12.9361 31.0597ZM6.40094 22.6198C6.52548 23.5329 7.40553 27.9911 12.9362 31.0597L13.0574 30.8411C7.61918 27.8237 6.76678 23.4521 6.64865 22.5861L6.40094 22.6198ZM14.2936 39.1453H13.3335V39.3953H14.2936V39.1453ZM14.1869 39.3355L14.1871 39.3358L14.4 39.2048L14.3998 39.2045L14.1869 39.3355ZM15.6474 35.9245C15.0138 37.5536 14.4567 38.6852 14.1825 39.2124L14.4043 39.3277C14.6821 38.7937 15.2431 37.6538 15.8804 36.0151L15.6474 35.9245ZM12.2241 32.1707C14.8829 33.6457 15.514 35.4886 15.6426 36.0003L15.8851 35.9394C15.7429 35.3736 15.0754 33.4666 12.3453 31.9521L12.2241 32.1707ZM7.05748 27.636C8.13216 29.1683 9.7573 30.8007 12.224 32.1707L12.3454 31.9521C9.913 30.6013 8.31593 28.995 7.26216 27.4924L7.05748 27.636ZM11.0954 39.2126C10.4743 38.0198 8.41707 33.7336 7.28277 27.5417L7.03687 27.5867C8.17689 33.8099 10.2447 38.1202 10.8736 39.3281L11.0954 39.2126ZM11.9446 39.1453H10.9845V39.3953H11.9446V39.1453ZM11.8196 34.7405V39.2703H12.0696V34.7405H11.8196ZM13.3335 34.6155H11.9446V34.8655H13.3335V34.6155ZM13.4585 39.2703V34.7405H13.2085V39.2703H13.4585Z" fill="black"/>
</g>
<defs>
<filter id="filter0_d" x="0.875" y="0.319458" width="23.5277" height="48.3697" filterUnits="userSpaceOnUse" color-interpolation-filters="sRGB">
<feFlood flood-opacity="0" result="BackgroundImageFix"/>
<feColorMatrix in="SourceAlpha" type="matrix" values="0 0 0 0 0 0 0 0 0 0 0 0 0 0 0 0 0 0 127 0"/>
<feOffset dy="4"/>
<feGaussianBlur stdDeviation="2"/>
<feColorMatrix type="matrix" values="0 0 0 0 0 0 0 0 0 0 0 0 0 0 0 0 0 0 0.25 0"/>
<feBlend mode="normal" in2="BackgroundImageFix" result="effect1_dropShadow"/>
<feBlend mode="normal" in="SourceGraphic" in2="effect1_dropShadow" result="shape"/>
</filter>
</defs>
</svg>
