<svg width="47" height="47" viewBox="0 0 47 47" fill="none" xmlns="http://www.w3.org/2000/svg">
<g filter="url(#filter0_d)">
<path d="M42.037 31.489H33.7502C33.4851 31.489 33.2688 31.7024 33.2688 31.964C33.2688 32.2256 33.4851 32.439 33.7502 32.439H42.037C42.3022 32.439 42.5185 32.2256 42.5185 31.964C42.5185 31.7024 42.3022 31.489 42.037 31.489Z" fill="white"/>
<path d="M42.037 37.5098H32.7459C32.4807 37.5098 32.2644 37.7231 32.2644 37.9847C32.2644 38.2464 32.4807 38.4597 32.7459 38.4597H42.037C42.3022 38.4597 42.5185 38.2464 42.5185 37.9847C42.5185 37.7231 42.3022 37.5098 42.037 37.5098Z" fill="white"/>
<path d="M4.48148 34.9179H11.9743C12.2395 34.9179 12.4558 34.7045 12.4558 34.4429C12.4558 34.1813 12.2395 33.9679 11.9743 33.9679H4.48148C4.21629 33.9679 4 34.1813 4 34.4429C4 34.7063 4.21629 34.9179 4.48148 34.9179Z" fill="white"/>
<path fill-rule="evenodd" clip-rule="evenodd" d="M7.74481 0.509336C7.93098 0.418424 8.15292 0.45553 8.29962 0.600253L8.29986 0.600476C8.44468 0.745175 8.48229 0.965966 8.38825 1.14965C8.08921 1.73968 7.93875 2.36865 7.93875 3.0199C7.93875 5.34656 9.86843 7.24093 12.2382 7.24093C12.9021 7.24093 13.5435 7.09065 14.1453 6.79749C14.3315 6.70658 14.5534 6.74368 14.7001 6.88841C14.8468 7.03311 14.8826 7.2539 14.7904 7.43573C13.8933 9.21136 12.0877 10.3135 10.079 10.3135C7.1768 10.3135 4.81644 7.99217 4.81644 5.14042C4.81644 3.1644 5.93925 1.39067 7.74481 0.509336ZM13.1276 8.11633C12.8342 8.16643 12.5389 8.19055 12.238 8.19055L12.2381 8.19071C9.33592 8.19071 6.97555 5.87132 6.97743 3.01957C6.97743 2.72271 7.00188 2.43139 7.05267 2.1438C6.24771 2.9212 5.77939 3.98992 5.77939 5.14028C5.77939 7.46879 7.70907 9.36316 10.0789 9.36316C11.2506 9.36316 12.3358 8.9049 13.1276 8.11633Z" fill="white"/>
<path fill-rule="evenodd" clip-rule="evenodd" d="M42.039 23.8763H42.0371C41.7719 23.8763 41.5575 24.0878 41.5556 24.3494L41.5443 26.8858L23.677 0.889934C23.4983 0.628323 23.0601 0.628323 22.8796 0.889934L5.02529 26.8672L5.03658 24.175C5.03846 23.9134 4.82217 23.6982 4.55698 23.6982H4.5551C4.28991 23.6982 4.0755 23.9097 4.07362 24.1713L4.05669 28.4202C4.05481 28.6299 4.19399 28.8135 4.39523 28.8766C4.44225 28.8915 4.48927 28.897 4.53817 28.897C4.69428 28.897 4.84474 28.821 4.9369 28.6892L7.74677 24.6018V28.4239C7.74677 28.6855 7.96306 28.8989 8.22826 28.8989H18.9523C19.4996 30.6504 21.1603 31.9269 23.1201 31.9269C23.1268 31.9269 23.1331 31.9264 23.1394 31.9259C23.1453 31.9255 23.1513 31.925 23.1577 31.925L23.1615 31.9253L23.1654 31.9257L23.1671 31.926C23.1704 31.9264 23.1737 31.9269 23.1765 31.9269C23.1859 31.9269 23.1953 31.9255 23.2047 31.9241C23.2141 31.9227 23.2235 31.9213 23.2329 31.9213C25.1419 31.8731 26.75 30.6151 27.2861 28.8989H38.3303C38.5955 28.8989 38.8118 28.6855 38.8118 28.4239V24.6017L41.6216 28.6892C41.7401 28.8618 41.9583 28.9378 42.1595 28.8766C42.3608 28.8154 42.5 28.6317 42.5 28.4239L42.5188 24.3531C42.5207 24.0897 42.3062 23.8782 42.0392 23.8763L42.039 23.8763ZM23.2328 30.9716L23.2275 30.972C23.2032 30.9737 23.1804 30.9753 23.1576 30.9753C22.3225 30.9642 21.6454 30.2962 21.6454 29.4762C21.6454 28.9363 22.4504 27.6931 23.1764 26.7561C23.9024 27.6931 24.7073 28.9362 24.7073 29.4762C24.7073 30.2833 24.0509 30.9419 23.2328 30.9716L23.2328 30.9716ZM25.6684 29.4743C25.6684 29.6153 25.6496 29.7489 25.6271 29.8825L25.627 29.8826C26.1781 29.2888 26.5166 28.504 26.5129 27.6412C26.5129 26.2181 24.3236 23.1901 23.1162 21.6835C21.9106 23.1901 19.7195 26.22 19.7195 27.6412C19.7195 28.5763 20.1163 29.4224 20.7501 30.0291C20.7087 29.8491 20.6805 29.6654 20.6805 29.4743C20.6805 28.272 22.4504 26.1105 22.804 25.6893C22.9864 25.4722 23.3626 25.4722 23.545 25.6893C23.9005 26.1105 25.6684 28.272 25.6684 29.4743ZM23.4905 20.626C23.308 20.4089 22.9319 20.4089 22.7494 20.626C22.3413 21.1102 18.7603 25.4295 18.7603 27.6415C18.7603 27.716 18.7651 27.7895 18.7699 27.8628V27.8628C18.7718 27.8917 18.7737 27.9206 18.7753 27.9495H13.9268V24.8175C14.555 24.3166 16.637 22.5799 18.7455 20.0026C20.457 17.9116 22.4111 14.9559 23.2969 11.5864C24.1828 14.9577 26.1369 17.9113 27.8484 20.0026C29.9568 22.5798 32.0388 24.3164 32.6671 24.8175V27.9495H27.4628C27.4703 27.8474 27.4778 27.7454 27.4778 27.6415C27.4797 25.4299 23.8987 21.1105 23.4906 20.626H23.4905ZM33.6278 27.9492H37.8482L37.8507 23.2013L23.2801 2.00325L8.70953 23.2013V27.9492H12.962V24.5873C12.962 24.4388 13.0316 24.2997 13.1501 24.2106L13.1504 24.2104C13.2669 24.1202 22.8134 16.7385 22.8134 8.00182C22.8134 7.74021 23.0297 7.52684 23.2949 7.52684C23.5601 7.52684 23.7764 7.74021 23.7764 8.00182C23.7764 16.7356 33.3163 24.1152 33.4392 24.2103L33.4397 24.2106C33.5582 24.3015 33.6278 24.4407 33.6278 24.5873V27.9492Z" fill="white"/>
<path fill-rule="evenodd" clip-rule="evenodd" d="M30.596 33.686C30.6393 33.8047 30.6299 33.9383 30.5735 34.0515L30.5738 34.0515C30.5155 34.1665 30.4158 34.2537 30.2917 34.2946L28.5106 34.8753L30.2221 35.3522C30.3462 35.3874 30.4515 35.4691 30.5136 35.5804C30.5757 35.6917 30.5888 35.8216 30.5531 35.944L29.9381 37.9887C29.8761 38.1946 29.6861 38.3282 29.4773 38.3282C29.4341 38.3282 29.3889 38.3208 29.3457 38.3097L23.2179 36.6008L17.5941 38.4358C17.5452 38.4525 17.4945 38.46 17.4437 38.46C17.2443 38.46 17.0581 38.3375 16.9923 38.1408L16.2832 36.124C16.24 36.0053 16.2494 35.8717 16.3058 35.7585C16.3622 35.6434 16.4638 35.5581 16.586 35.5173L18.0718 35.033L16.287 34.5358C16.1628 34.5005 16.0575 34.4189 15.9955 34.3076C15.9334 34.1962 15.9202 34.0664 15.956 33.9439L16.571 31.8992C16.6462 31.6488 16.9095 31.5059 17.1634 31.5764L23.3644 33.3056L29.2813 31.3742C29.5315 31.2925 29.8004 31.4243 29.8869 31.6692L30.596 33.686ZM17.3592 32.6173L17.0169 33.751L19.7026 34.5005L21.7339 33.8382L17.3592 32.6173ZM29.4901 36.135L29.1478 37.2686L24.8483 36.0682L26.8796 35.4059L29.4901 36.135ZM17.3499 36.2687L17.7429 37.3875L29.5262 33.5431L29.1332 32.4242L17.3499 36.2687Z" fill="white"/>
</g>
<defs>
<filter id="filter0_d" x="0" y="0.459961" width="46.5188" height="46" filterUnits="userSpaceOnUse" color-interpolation-filters="sRGB">
<feFlood flood-opacity="0" result="BackgroundImageFix"/>
<feColorMatrix in="SourceAlpha" type="matrix" values="0 0 0 0 0 0 0 0 0 0 0 0 0 0 0 0 0 0 127 0"/>
<feOffset dy="4"/>
<feGaussianBlur stdDeviation="2"/>
<feColorMatrix type="matrix" values="0 0 0 0 0 0 0 0 0 0 0 0 0 0 0 0 0 0 0.25 0"/>
<feBlend mode="normal" in2="BackgroundImageFix" result="effect1_dropShadow"/>
<feBlend mode="normal" in="SourceGraphic" in2="effect1_dropShadow" result="shape"/>
</filter>
</defs>
</svg>
